<?xml version="1.0" encoding="UTF-8"?>
<svg width="159px" height="248px" viewBox="0 0 159 248" version="1.1" xmlns="http://www.w3.org/2000/svg" xmlns:xlink="http://www.w3.org/1999/xlink">
    <!-- Generator: Sketch 43.2 (39069) - http://www.bohemiancoding.com/sketch -->
    <title>graype</title>
    <desc>Created with Sketch.</desc>
    <defs></defs>
    <g id="Page-1" stroke="none" stroke-width="1" fill="none" fill-rule="evenodd">
        <g id="graype" fill="#8B3D8C">
            <path d="M122.5,29 C113.939586,29 107,22.9558441 107,15.5 C107,8.04415588 113.939586,2 122.5,2 C131.060414,2 138,8.04415588 138,15.5 C138,22.9558441 131.060414,29 122.5,29 Z M79,102 C54.1471863,102 34,84.3152476 34,62.5 C34,40.6847524 54.1471863,23 79,23 C103.852814,23 124,40.6847524 124,62.5 C124,84.3152476 103.852814,102 79,102 Z M79,244 C37.5786438,244 4,213.331505 4,175.5 C4,137.668495 37.5786438,107 79,107 C120.421356,107 154,137.668495 154,175.5 C154,213.331505 120.421356,244 79,244 Z" id="Combined-Shape"></path>
        </g>
    </g>
</svg>